<svg id="Group_15" data-name="Group 15" xmlns="http://www.w3.org/2000/svg" xmlns:xlink="http://www.w3.org/1999/xlink" width="28" height="28" viewBox="0 0 28 28">
  <defs>
    <clipPath id="clip-path">
      <path id="Path_1729" data-name="Path 1729" d="M13.626,0A13.817,13.817,0,0,0,0,14H0A13.816,13.816,0,0,0,13.625,28h0A13.816,13.816,0,0,0,27.251,14h0A13.817,13.817,0,0,0,13.626,0Z" fill="none"/>
    </clipPath>
    <radialGradient id="radial-gradient" cx="-0.025" cy="1.003" r="1.849" gradientUnits="objectBoundingBox">
      <stop offset="0" stop-color="#f5ec53"/>
      <stop offset="0.241" stop-color="#e48244"/>
      <stop offset="0.399" stop-color="#d05567"/>
      <stop offset="0.489" stop-color="#c84278"/>
      <stop offset="1" stop-color="#192cfa"/>
    </radialGradient>
    <clipPath id="clip-path-2">
      <rect id="Rectangle_50" data-name="Rectangle 50" width="28" height="27.813" fill="none"/>
    </clipPath>
  </defs>
  <g id="Group_46" data-name="Group 46" transform="translate(0.318)">
    <g id="Group_45" data-name="Group 45" transform="translate(0)" clip-path="url(#clip-path)">
      <rect id="Rectangle_49" data-name="Rectangle 49" width="27.95" height="27.821" transform="translate(-0.297 0.129)" fill="url(#radial-gradient)"/>
    </g>
  </g>
  <g id="Group_48" data-name="Group 48" transform="translate(0 0.135)">
    <g id="Group_47" data-name="Group 47" clip-path="url(#clip-path-2)">
      <path id="Path_1730" data-name="Path 1730" d="M142.54,136.436c2,0,2.235.008,3.024.045a4.051,4.051,0,0,1,1.39.264,2.313,2.313,0,0,1,.86.574,2.384,2.384,0,0,1,.56.882,4.341,4.341,0,0,1,.258,1.425c.036.809.044,1.052.044,3.1s-.008,2.292-.044,3.1a4.338,4.338,0,0,1-.258,1.425,2.383,2.383,0,0,1-.56.883,2.313,2.313,0,0,1-.86.574,4.05,4.05,0,0,1-1.39.264c-.789.037-1.026.045-3.024.045s-2.235-.008-3.024-.045a4.048,4.048,0,0,1-1.39-.264,2.315,2.315,0,0,1-.861-.574,2.385,2.385,0,0,1-.56-.883,4.342,4.342,0,0,1-.258-1.425c-.036-.809-.044-1.052-.044-3.1s.008-2.292.044-3.1a4.344,4.344,0,0,1,.258-1.425,2.386,2.386,0,0,1,.56-.882,2.314,2.314,0,0,1,.861-.574,4.049,4.049,0,0,1,1.39-.264c.789-.037,1.026-.045,3.024-.045m0-1.383c-2.033,0-2.287.009-3.086.046a5.379,5.379,0,0,0-1.817.357,3.66,3.66,0,0,0-1.326.885,3.771,3.771,0,0,0-.863,1.359,5.755,5.755,0,0,0-.348,1.863c-.036.819-.045,1.08-.045,3.164s.008,2.345.045,3.164a5.755,5.755,0,0,0,.348,1.863,3.771,3.771,0,0,0,.863,1.359,3.659,3.659,0,0,0,1.326.885,5.378,5.378,0,0,0,1.817.357c.8.037,1.053.046,3.086.046s2.287-.009,3.086-.046a5.378,5.378,0,0,0,1.817-.357,3.66,3.66,0,0,0,1.326-.885,3.775,3.775,0,0,0,.863-1.359,5.76,5.76,0,0,0,.348-1.863c.036-.819.045-1.08.045-3.164s-.009-2.345-.045-3.164a5.76,5.76,0,0,0-.348-1.863,3.776,3.776,0,0,0-.863-1.359,3.66,3.66,0,0,0-1.326-.885,5.379,5.379,0,0,0-1.817-.357c-.8-.037-1.053-.046-3.086-.046" transform="translate(-128.593 -128.86)" fill="#fff"/>
      <path id="Path_1731" data-name="Path 1731" d="M218.651,214.809a3.942,3.942,0,1,0,3.843,3.941,3.893,3.893,0,0,0-3.843-3.941m0,6.5a2.559,2.559,0,1,1,2.495-2.558,2.527,2.527,0,0,1-2.495,2.558" transform="translate(-204.704 -204.883)" fill="#fff"/>
      <path id="Path_1732" data-name="Path 1732" d="M368.625,192.73a.9.9,0,1,1-.9-.921.91.91,0,0,1,.9.921" transform="translate(-349.784 -182.959)" fill="#fff"/>
    </g>
  </g>
</svg>
