<svg xmlns="http://www.w3.org/2000/svg" width="79.989" height="80" viewBox="0 0 79.989 80">
  <path id="Path_40" data-name="Path 40" d="M38.878,58.6a1.117,1.117,0,1,1,2.234,0V78.881a1.117,1.117,0,1,1-2.234,0ZM2.149,31.021a1.121,1.121,0,0,1,.581-2.166L22.341,34.1a1.122,1.122,0,0,1-.583,2.166Zm3.611-9.5a1.116,1.116,0,0,1,1.117-1.932L24.461,29.74a1.117,1.117,0,0,1-1.118,1.933ZM19.592,6.87a1.112,1.112,0,0,1,1.935-1.095L31.681,23.336a1.117,1.117,0,0,1-1.933,1.118Zm9.271-4.146A1.11,1.11,0,0,1,31,2.142l5.264,19.61a1.122,1.122,0,0,1-2.166.582Zm20.121-.582a1.122,1.122,0,0,1,2.167.582l-5.265,19.61a1.121,1.121,0,0,1-2.165-.582Zm9.5,3.611A1.117,1.117,0,0,1,60.419,6.87L50.266,24.454a1.117,1.117,0,0,1-1.933-1.118Zm18.8,23.1a1.118,1.118,0,0,1,.558,2.166L58.23,36.262a1.118,1.118,0,0,1-.558-2.166Zm-4.17-9.269a1.117,1.117,0,0,1,1.119,1.932L56.646,31.674a1.117,1.117,0,0,1-1.118-1.933ZM68.291,66.7a1.12,1.12,0,0,1-1.584,1.584L52.362,53.939a1.119,1.119,0,0,1,1.583-1.584ZM13.305,68.286A1.12,1.12,0,0,1,11.722,66.7L26.068,52.355a1.12,1.12,0,0,1,1.584,1.584ZM1.1,41.129a1.13,1.13,0,0,1,0-2.259h20.31a1.13,1.13,0,0,1,0,2.259ZM38.878,1.118a1.117,1.117,0,1,1,2.234,0V21.4a1.117,1.117,0,1,1-2.234,0ZM57.671,45.88a1.107,1.107,0,0,1,.558-2.143l19.61,5.241a1.118,1.118,0,0,1-.558,2.166Zm-2.143,4.379a1.117,1.117,0,0,1,1.118-1.933L74.231,58.48a1.117,1.117,0,0,1-1.119,1.932Zm-7.2,6.381a1.111,1.111,0,0,1,1.933-1.095L60.419,73.129a1.111,1.111,0,0,1-1.933,1.095Zm-4.611,1.606a1.121,1.121,0,0,1,2.165-.582l5.265,19.61a1.122,1.122,0,0,1-2.167.582ZM34.1,57.665a1.122,1.122,0,0,1,2.166.582L31,77.857a1.11,1.11,0,0,1-2.142-.582Zm-4.356-2.119a1.111,1.111,0,0,1,1.933,1.095L21.527,74.224a1.112,1.112,0,0,1-1.935-1.095ZM21.758,43.737a1.111,1.111,0,0,1,.583,2.143L2.73,51.144a1.121,1.121,0,0,1-.581-2.166Zm1.585,4.588a1.117,1.117,0,0,1,1.118,1.933L6.876,60.413A1.116,1.116,0,0,1,5.759,58.48ZM27.652,26.06a1.12,1.12,0,0,1-1.584,1.584L11.722,13.3a1.12,1.12,0,0,1,1.584-1.584Zm26.293,1.584a1.119,1.119,0,0,1-1.583-1.584L66.707,11.715A1.12,1.12,0,0,1,68.291,13.3Zm4.636,13.485a1.13,1.13,0,0,1,0-2.259H78.889a1.13,1.13,0,0,1,0,2.259Z" transform="translate(0)" fill="#b39c4d"/>
</svg>
