<svg xmlns="http://www.w3.org/2000/svg" xmlns:xlink="http://www.w3.org/1999/xlink" width="42.942" height="42.948" viewBox="0 0 42.942 42.948">
  <defs>
    <clipPath id="clip-path">
      <rect id="Rectangle_15" data-name="Rectangle 15" width="42.942" height="42.948" fill="#fff"/>
    </clipPath>
  </defs>
  <g id="Group_7" data-name="Group 7" clip-path="url(#clip-path)">
    <path id="Path_32" data-name="Path 32" d="M20.872,31.457a.6.6,0,1,1,1.2,0v10.89a.6.6,0,1,1-1.2,0ZM1.154,16.653a.6.6,0,0,1,.312-1.163L11.994,18.3a.6.6,0,0,1-.313,1.163Zm1.938-5.1a.6.6,0,0,1,.6-1.037l9.44,5.451a.6.6,0,0,1-.6,1.038Zm7.426-7.864A.6.6,0,0,1,11.557,3.1l5.451,9.427a.6.6,0,0,1-1.038.6ZM15.5,1.462a.6.6,0,0,1,1.15-.313l2.826,10.528a.6.6,0,0,1-1.163.313ZM26.3,1.15a.6.6,0,0,1,1.163.313L24.634,11.99a.6.6,0,0,1-1.162-.313Zm5.1,1.938a.6.6,0,0,1,1.038.6l-5.451,9.44a.6.6,0,0,1-1.038-.6Zm10.09,12.4a.6.6,0,0,1,.3,1.163L31.261,19.467a.6.6,0,0,1-.3-1.163ZM39.25,10.515a.6.6,0,0,1,.6,1.037L30.41,17a.6.6,0,0,1-.6-1.038ZM36.662,35.809a.6.6,0,0,1-.85.85l-7.7-7.7a.6.6,0,0,1,.85-.85Zm-29.519.85a.6.6,0,0,1-.85-.85l7.7-7.7a.6.6,0,0,1,.85.85ZM.59,22.08a.607.607,0,0,1,0-1.213h10.9a.607.607,0,0,1,0,1.213ZM20.872.6a.6.6,0,1,1,1.2,0V11.49a.6.6,0,1,1-1.2,0ZM30.961,24.631a.594.594,0,0,1,.3-1.151l10.528,2.814a.6.6,0,0,1-.3,1.163ZM29.81,26.981a.6.6,0,0,1,.6-1.038l9.44,5.452a.6.6,0,0,1-.6,1.037Zm-3.863,3.426a.6.6,0,0,1,1.038-.588l5.451,9.44a.6.6,0,0,1-1.038.588Zm-2.475.862a.6.6,0,0,1,1.162-.313L27.46,41.485A.6.6,0,0,1,26.3,41.8Zm-5.164-.313a.6.6,0,0,1,1.163.313L16.645,41.8a.6.6,0,0,1-1.15-.313ZM15.97,29.819a.6.6,0,0,1,1.038.588l-5.451,9.44a.6.6,0,0,1-1.039-.588ZM11.681,23.48a.6.6,0,0,1,.313,1.151L1.466,27.457a.6.6,0,0,1-.312-1.163Zm.851,2.463a.6.6,0,0,1,.6,1.038l-9.44,5.451a.6.6,0,0,1-.6-1.037ZM14.845,13.99a.6.6,0,0,1-.85.85l-7.7-7.7a.6.6,0,0,1,.85-.85Zm14.115.85a.6.6,0,0,1-.85-.85l7.7-7.7a.6.6,0,0,1,.85.85Zm2.489,7.24a.607.607,0,0,1,0-1.213h10.9a.607.607,0,0,1,0,1.213Z" transform="translate(0 0)" fill="#fff"/>
  </g>
</svg>
