<svg id="Group_16" data-name="Group 16" xmlns="http://www.w3.org/2000/svg" xmlns:xlink="http://www.w3.org/1999/xlink" width="28" height="28" viewBox="0 0 28 28">
  <defs>
    <clipPath id="clip-path">
      <rect id="Rectangle_53" data-name="Rectangle 53" width="28" height="28" fill="none"/>
    </clipPath>
  </defs>
  <g id="Group_52" data-name="Group 52" clip-path="url(#clip-path)">
    <path id="Path_1735" data-name="Path 1735" d="M14,28h0A14,14,0,0,1,0,14H0A14,14,0,0,1,14,0h0A14,14,0,0,1,28,14h0A14,14,0,0,1,14,28" fill="#117bb8"/>
    <rect id="Rectangle_52" data-name="Rectangle 52" width="2.898" height="9.36" transform="translate(7.652 10.879)" fill="#fff"/>
    <path id="Path_1736" data-name="Path 1736" d="M159.18,135.841a1.727,1.727,0,1,0-1.713-1.728,1.721,1.721,0,0,0,1.713,1.728" transform="translate(-150.094 -126.187)" fill="#fff"/>
    <path id="Path_1737" data-name="Path 1737" d="M267.632,230.972c0-1.316.606-2.1,1.765-2.1,1.065,0,1.577.752,1.577,2.1v4.914h2.884v-5.927c0-2.507-1.421-3.72-3.406-3.72a3.264,3.264,0,0,0-2.821,1.547v-1.261h-2.779v9.36h2.779Z" transform="translate(-252.451 -215.646)" fill="#fff"/>
  </g>
</svg>
