<svg xmlns="http://www.w3.org/2000/svg" width="79" height="78.21" viewBox="0 0 79 78.21">
  <g id="online-chat" transform="translate(-0.773 -1.016)">
    <path id="Path_46" data-name="Path 46" d="M78.143,67.33h-1.8V29.213A4.871,4.871,0,0,0,79.4,24.7V5.885a4.871,4.871,0,0,0-4.861-4.869H45.3a4.871,4.871,0,0,0-4.861,4.869v15.23H11.3a7.084,7.084,0,0,0-7.092,7.06V67.33H2.4a1.63,1.63,0,0,0-1.63,1.63v1.333A8.942,8.942,0,0,0,9.7,79.226H70.843a8.942,8.942,0,0,0,8.931-8.932V68.961a1.63,1.63,0,0,0-1.63-1.63ZM43.7,5.885a1.606,1.606,0,0,1,1.6-1.608H74.543a1.606,1.606,0,0,1,1.6,1.608V24.7a1.6,1.6,0,0,1-1.5,1.589,1.456,1.456,0,0,0-.307,0c-.018,0-.031.016-.049.021h-13.2a1.625,1.625,0,0,0-1.022.361L50.47,34.4V27.937a1.63,1.63,0,0,0-1.63-1.63H45.3a1.607,1.607,0,0,1-1.6-1.61ZM7.47,28.174a3.819,3.819,0,0,1,3.831-3.8H40.441V24.7A4.872,4.872,0,0,0,45.3,29.567h1.907V37.8a1.629,1.629,0,0,0,2.653,1.269l11.8-9.5H73.08V67.33H45.748a15.445,15.445,0,0,0-15.135-12.4H25.022A15.481,15.481,0,0,0,9.87,67.33H7.47ZM13.232,67.33a12.207,12.207,0,0,1,11.79-9.136h5.592A12.177,12.177,0,0,1,42.389,67.33Zm57.611,8.635H9.7a5.676,5.676,0,0,1-5.662-5.374H76.5a5.676,5.676,0,0,1-5.662,5.374Z" transform="translate(0)" fill="#f5f5ee"/>
    <path id="Path_47" data-name="Path 47" d="M21.784,42.871c6.106,0,11.023-7.561,11.023-13.822a11.023,11.023,0,1,0-22.046,0C10.761,35.31,15.678,42.871,21.784,42.871Zm0-21.649a7.8,7.8,0,0,1,7.762,7.827c0,4.611-3.764,10.561-7.762,10.561s-7.762-5.95-7.762-10.561a7.8,7.8,0,0,1,7.762-7.827Z" transform="translate(6.296 10.683)" fill="#f5f5ee"/>
    <path id="Path_48" data-name="Path 48" d="M31.942,12.014h2.31a1.63,1.63,0,0,0,0-3.261h-2.31a1.63,1.63,0,0,0,0,3.261Z" transform="translate(18.622 4.878)" fill="#f5f5ee"/>
    <path id="Path_49" data-name="Path 49" d="M36.973,12.014h2.31a1.63,1.63,0,0,0,0-3.261h-2.31a1.63,1.63,0,1,0,0,3.261Z" transform="translate(21.794 4.878)" fill="#f5f5ee"/>
    <path id="Path_50" data-name="Path 50" d="M42,12.014h2.31a1.63,1.63,0,1,0,0-3.261H42a1.63,1.63,0,1,0,0,3.261Z" transform="translate(24.966 4.878)" fill="#f5f5ee"/>
  </g>
</svg>
