<svg xmlns="http://www.w3.org/2000/svg" width="54.667" height="54.703" viewBox="0 0 54.667 54.703">
  <path id="Target" d="M47.051,33.84A14.845,14.845,0,0,1,33.882,47.075a.51.51,0,0,0-.516.516V58.64a1.033,1.033,0,0,1-2.065,0V54.632a.559.559,0,0,0-.516-.516A21.769,21.769,0,0,1,11.347,37.393a1.033,1.033,0,1,1,2-.516A19.631,19.631,0,0,0,30.718,51.983c.134.067.261,0,.389-.128a.389.389,0,0,0,.194-.389V47.592a.51.51,0,0,0-.516-.516,15.027,15.027,0,0,1-8.9-4.252,14.869,14.869,0,0,1-4.252-8.977.541.541,0,0,0-.516-.456H6.063a1.063,1.063,0,0,1,0-2.126h4.2a.547.547,0,0,0,.516-.456,22.006,22.006,0,0,1,16.133-19.9,1.069,1.069,0,0,1,.516,2.071A19.7,19.7,0,0,0,12.9,30.675a.5.5,0,0,0,.516.607h3.675a.541.541,0,0,0,.516-.456,14.845,14.845,0,0,1,13.181-13.26.51.51,0,0,0,.516-.516V6a1.033,1.033,0,1,1,2.065,0V18.533a1.051,1.051,0,0,1-1.1,1.1c-11.231,0-16.843,13.752-8.9,21.7s21.49,2.26,21.684-9.008a1.02,1.02,0,0,1,1.033-1.033H58.6a1.063,1.063,0,1,1,0,2.126h-4.13a.5.5,0,0,0-.516.456,21.952,21.952,0,0,1-16.588,19.71,1.057,1.057,0,0,1-.456-2.065A19.741,19.741,0,0,0,51.825,33.968a.5.5,0,0,0-.516-.607H47.567a.541.541,0,0,0-.516.456Zm8.364-17.177L47.95,24.085a1.02,1.02,0,0,1-.7.328H42.27a.869.869,0,0,0-.383.128l-8.844,8.911a1.051,1.051,0,0,1-1.488-1.482L40.4,23.052a.352.352,0,0,0,.194-.322V17.744a1.063,1.063,0,0,1,.322-.771l7.423-7.416a1.051,1.051,0,0,1,1.822.711v4.07a.553.553,0,0,0,.516.516h4a1.063,1.063,0,0,1,.771,1.822Zm-8.5,5.467L51.236,17.8a.522.522,0,0,0-.322-.905H49.092a1.075,1.075,0,0,1-1.1-1.033V14.1a.535.535,0,0,0-.905-.383l-4.252,4.325a.571.571,0,0,0-.194.389v3.359a.51.51,0,0,0,.516.516h3.42c.134,0,.261,0,.322-.134ZM41.1,32.334a8.777,8.777,0,1,1-8.771-8.765,1.039,1.039,0,0,1,0,2.071,6.681,6.681,0,1,0,0,13.363c3.875,0,6.457-2.9,6.645-6.681a1.069,1.069,0,1,1,2.132.061Z" transform="translate(-5 -4.97)" fill="#b39c4d"/>
</svg>
