<svg xmlns="http://www.w3.org/2000/svg" width="77.001" height="93.492" viewBox="0 0 77.001 93.492">
  <path id="tax" d="M64.671,34.918a1.508,1.508,0,0,0,1.508,1.508h6.039a13.289,13.289,0,0,0,19.661,0h11.8a1.508,1.508,0,0,0,0-3.016H93.95A13.306,13.306,0,1,0,69.758,22.36H66.179a1.508,1.508,0,0,0,0,3.016H68.9a13.354,13.354,0,0,0-.165,2.088,13.221,13.221,0,0,0,1.408,5.947H66.18a1.508,1.508,0,0,0-1.508,1.508ZM82.048,17.17A10.294,10.294,0,1,1,71.755,27.464,10.305,10.305,0,0,1,82.048,17.17Zm4.959,28.8A1.508,1.508,0,0,1,85.5,47.477H66.179a1.508,1.508,0,1,1,0-3.016H85.5A1.508,1.508,0,0,1,87.007,45.969ZM86.9,57.019a1.508,1.508,0,0,1-1.508,1.508H66.179a1.508,1.508,0,0,1,0-3.016H85.387A1.508,1.508,0,0,1,86.9,57.019ZM84.147,31.054a.749.749,0,0,0,.17-.646c-.04-.332-.135-1.11-2.5-1.5-3.915-.643-4.6-2.875-4.665-4.148a4.349,4.349,0,0,1,3.391-4.393V20a1.508,1.508,0,1,1,3.016,0v.358a4.955,4.955,0,0,1,3.357,2.941,1.508,1.508,0,0,1-2.781,1.168,2.246,2.246,0,0,0-2.645-1.224c-.323.073-1.373.389-1.325,1.377.013.267.047.975,2.141,1.319,3.052.5,4.737,1.885,5.007,4.111a3.747,3.747,0,0,1-.883,2.982,5.257,5.257,0,0,1-2.872,1.587v.318a1.508,1.508,0,0,1-3.016,0v-.344A4.959,4.959,0,0,1,76.8,31a1.508,1.508,0,0,1,2.926-.729,2.29,2.29,0,0,0,2.441,1.482,2.917,2.917,0,0,0,1.98-.7Zm39.208,13.407h-5.243v-24a3.1,3.1,0,0,0-.926-2.237L107.89,8.926A3.1,3.1,0,0,0,105.654,8H54.906a3.167,3.167,0,0,0-3.163,3.163v78.8a3.167,3.167,0,0,0,3.163,3.163h.28a21.722,21.722,0,0,0-1.832,6.7,1.508,1.508,0,0,0,1.5,1.668h40.4a1.508,1.508,0,0,0,1.5-1.669,21.721,21.721,0,0,0-1.832-6.7h20.028a3.167,3.167,0,0,0,3.163-3.163V74.695h5.243a5.4,5.4,0,0,0,5.39-5.39V49.85a5.4,5.4,0,0,0-5.39-5.39Zm-10.391-26.2h-5.116V13.148ZM56.607,98.476A18.762,18.762,0,0,1,75.052,83.361h0A18.762,18.762,0,0,1,93.5,98.476Zm9.683-26.895a8.764,8.764,0,1,1,8.767,8.764h-.005a8.774,8.774,0,0,1-8.762-8.764ZM115.1,89.964a.151.151,0,0,1-.147.148h-21.7a21.866,21.866,0,0,0-11.624-8.756,11.78,11.78,0,1,0-13.137,0A21.865,21.865,0,0,0,56.86,90.111H54.906a.151.151,0,0,1-.147-.148v-78.8a.151.151,0,0,1,.147-.147h49.925v7.929a2.338,2.338,0,0,0,2.336,2.336H115.1V44.461H94.924a5.4,5.4,0,0,0-5.39,5.39V69.305a5.4,5.4,0,0,0,5.39,5.39H96.7v6.4a1.508,1.508,0,0,0,2.6,1.045l7.151-7.444H115.1Zm10.633-20.659a2.376,2.376,0,0,1-2.374,2.374H105.8a1.508,1.508,0,0,0-1.087.463l-5,5.205V73.187a1.508,1.508,0,0,0-1.508-1.508H94.924a2.377,2.377,0,0,1-2.374-2.374V49.85a2.377,2.377,0,0,1,2.374-2.374h28.431a2.376,2.376,0,0,1,2.374,2.374Zm-5.279-16.719a1.508,1.508,0,0,1-1.508,1.508h-19.6a1.508,1.508,0,1,1,0-3.016h19.6A1.508,1.508,0,0,1,120.449,52.586Zm0,6.991a1.508,1.508,0,0,1-1.508,1.508h-19.6a1.508,1.508,0,1,1,0-3.016h19.6A1.508,1.508,0,0,1,120.449,59.578Zm0,6.991a1.508,1.508,0,0,1-1.508,1.508h-19.6a1.508,1.508,0,1,1,0-3.016h19.6A1.508,1.508,0,0,1,120.449,66.569Z" transform="translate(-51.743 -8)" fill="#f5f5ee"/>
</svg>
