<svg xmlns="http://www.w3.org/2000/svg" width="55.999" height="41.562" viewBox="0 0 55.999 41.562">
  <g id="visibility" transform="translate(0 -66)">
    <path id="Path_35" data-name="Path 35" d="M216.937,271.469a5.469,5.469,0,1,0-5.469,5.469A5.475,5.475,0,0,0,216.937,271.469Z" transform="translate(-183.469 -178.125)" fill="#b39c4d"/>
    <path id="Path_36" data-name="Path 36" d="M.274,199.494a1.094,1.094,0,0,0,0,1.448,45.865,45.865,0,0,0,7.914,6.742c5.843,3.984,12.74,6.752,19.811,6.752s13.969-2.769,19.811-6.752a45.849,45.849,0,0,0,7.914-6.742,1.094,1.094,0,0,0,0-1.448,45.866,45.866,0,0,0-7.914-6.742C41.967,188.768,35.07,186,28,186s-13.969,2.769-19.811,6.752a45.861,45.861,0,0,0-7.914,6.742Zm15.695.724A12.031,12.031,0,1,1,28,212.25,12.045,12.045,0,0,1,15.968,200.219Zm30.561-5.692a47.027,47.027,0,0,1,6.868,5.692,46.877,46.877,0,0,1-6.82,5.658,40.106,40.106,0,0,1-8.656,4.514,14.193,14.193,0,0,0,0-20.346,40.068,40.068,0,0,1,8.608,4.481Zm-28.453-4.481a14.193,14.193,0,0,0,0,20.346,40.063,40.063,0,0,1-8.608-4.481A47.031,47.031,0,0,1,2.6,200.218a46.875,46.875,0,0,1,6.82-5.658A40.106,40.106,0,0,1,18.077,190.046Z" transform="translate(0 -106.875)" fill="#b39c4d"/>
    <path id="Path_37" data-name="Path 37" d="M130.92,105.876a1.094,1.094,0,0,0,.4-1.494L128.039,98.7a1.094,1.094,0,1,0-1.894,1.094l3.281,5.683A1.093,1.093,0,0,0,130.92,105.876Z" transform="translate(-112.217 -28.635)" fill="#b39c4d"/>
    <path id="Path_38" data-name="Path 38" d="M340.92,98.3a1.094,1.094,0,0,0-1.494.4l-3.281,5.683a1.094,1.094,0,1,0,1.894,1.094l3.281-5.683A1.094,1.094,0,0,0,340.92,98.3Z" transform="translate(-299.249 -28.636)" fill="#b39c4d"/>
    <path id="Path_39" data-name="Path 39" d="M248.187,73.656V67.094a1.094,1.094,0,1,0-2.187,0v6.562a1.094,1.094,0,0,0,2.187,0Z" transform="translate(-219.094)" fill="#b39c4d"/>
  </g>
</svg>
